<svg width="24" height="24" viewBox="0 0 24 24" fill="none" xmlns="http://www.w3.org/2000/svg">
<path d="M12.3232 17.2446L15.1432 20.0646C15.3457 20.2735 15.6067 20.4161 15.8919 20.4736C16.1771 20.5312 16.473 20.501 16.7407 20.3871C17.0074 20.2673 17.2332 20.0721 17.3904 19.8256C17.5477 19.5791 17.6294 19.292 17.6257 18.9996V12.9996L11.4832 16.5696C11.7788 16.7745 12.0595 17.0001 12.3232 17.2446ZM22.0207 6.57214C21.8631 6.31232 21.6106 6.12399 21.3167 6.04701C21.0227 5.97002 20.7104 6.01041 20.4457 6.15964L17.6257 7.77214V4.49464C17.6321 4.20166 17.5504 3.91351 17.3911 3.66754C17.2318 3.42156 17.0023 3.22911 16.7323 3.11514C16.4623 3.00117 16.1644 2.97093 15.877 3.02835C15.5896 3.08576 15.3261 3.22818 15.1207 3.43714L12.3157 6.24964C11.6325 6.92715 10.8225 7.46334 9.93196 7.82754C9.04141 8.19174 8.0878 8.3768 7.12567 8.37214C6.72785 8.37214 6.34632 8.53018 6.06501 8.81148C5.78371 9.09278 5.62567 9.47432 5.62567 9.87214V13.6221C5.63853 13.9519 5.75979 14.2683 5.97067 14.5221L2.41567 16.5846C2.2059 16.755 2.06448 16.9953 2.01729 17.2614C1.97009 17.5275 2.02028 17.8017 2.15866 18.0339C2.29703 18.266 2.51436 18.4406 2.77089 18.5257C3.02742 18.6107 3.30599 18.6006 3.55567 18.4971L9.03817 15.3321L17.6257 10.3971L21.5782 8.14714C21.7123 8.07445 21.8305 7.97558 21.9257 7.85638C22.0209 7.73718 22.0912 7.60009 22.1325 7.45322C22.1738 7.30634 22.1851 7.15269 22.1659 7.00134C22.1467 6.85 22.0973 6.70405 22.0207 6.57214Z" fill="white"/>
</svg>
