<svg width="24" height="24" viewBox="0 0 24 24" fill="none" xmlns="http://www.w3.org/2000/svg">
<path fill-rule="evenodd" clip-rule="evenodd" d="M7.75488 2.38C4.7897 2.38 2.37988 4.78982 2.37988 7.755V13.755C2.37988 16.7202 4.7897 19.13 7.75488 19.13H13.7549C16.7201 19.13 19.1299 16.7202 19.1299 13.755V7.755C19.1299 4.78982 16.7201 2.38 13.7549 2.38H7.75488ZM3.62988 7.755C3.62988 5.48018 5.48006 3.63 7.75488 3.63H13.7549C16.0297 3.63 17.8799 5.48018 17.8799 7.755V13.755C17.8799 16.0298 16.0297 17.88 13.7549 17.88H7.75488C5.48006 17.88 3.62988 16.0298 3.62988 13.755V7.755ZM21.4339 10.1639C21.4339 9.8187 21.154 9.5389 20.8089 9.5389C20.4637 9.5389 20.1839 9.8187 20.1839 10.1639V16.1639C20.1839 18.4387 18.3337 20.2889 16.0589 20.2889H10.0589C9.71368 20.2889 9.43388 20.5687 9.43388 20.9139C9.43388 21.2591 9.71368 21.5389 10.0589 21.5389H16.0589C19.024 21.5389 21.4339 19.1291 21.4339 16.1639V10.1639ZM10.7537 6.07611C11.0989 6.07545 11.3792 6.35475 11.3799 6.69992L11.3864 10.1308L14.919 10.1241C15.2642 10.1235 15.5446 10.4027 15.5452 10.7479C15.5459 11.0931 15.2666 11.3735 14.9214 11.3741L11.3888 11.3808L11.3956 15.0149C11.3963 15.3601 11.117 15.6404 10.7718 15.6411C10.4266 15.6417 10.1463 15.3624 10.1456 15.0173L10.1388 11.3832L6.60641 11.3899C6.26123 11.3905 5.98088 11.1112 5.98022 10.766C5.97957 10.4209 6.25886 10.1405 6.60404 10.1399L10.1364 10.1332L10.1299 6.70229C10.1292 6.35711 10.4085 6.07676 10.7537 6.07611Z" fill="white"/>
</svg>
