<svg width="150" height="150" viewBox="0 0 150 150" fill="none" xmlns="http://www.w3.org/2000/svg">
<path fill-rule="evenodd" clip-rule="evenodd" d="M17.2022 18.8404C30.3669 6.12392 48.3697 0.82608 75.0001 0.82608C101.63 0.82608 119.633 6.12392 132.798 18.8404C132.808 18.8501 132.818 18.8599 132.828 18.8697L133.54 19.585C133.946 19.9924 134.174 20.5441 134.174 21.1192V74.5232C134.174 108.224 110.909 138.081 76.3801 148.831L75.6899 149.062C75.2422 149.211 74.7579 149.211 74.3102 149.062L73.62 148.831C39.0915 138.081 15.8262 108.224 15.8262 74.5232V21.1192C15.8262 20.5441 16.0541 19.9924 16.46 19.585L17.1725 18.8697C17.1823 18.8598 17.1922 18.8501 17.2022 18.8404ZM20.174 22.0172V74.5232C20.174 106.139 42.0238 134.449 74.9333 144.686C74.948 144.69 74.9628 144.695 74.9774 144.7L75.0001 144.708L75.0227 144.7C75.0374 144.695 75.0521 144.69 75.0669 144.686C107.976 134.449 129.826 106.139 129.826 74.5232V22.0172L129.762 21.953C117.753 10.3618 101.084 5.17391 75.0001 5.17391C48.9163 5.17391 32.2471 10.3618 20.2379 21.9531L20.174 22.0172Z" fill="white"/>
<path fill-rule="evenodd" clip-rule="evenodd" d="M34.174 28.6824V73.7615C34.174 97.8124 49.8636 119.477 74.3031 128.728C74.3059 128.729 74.3087 128.731 74.3116 128.732C74.776 128.668 75.2657 128.647 75.754 128.707C100.161 119.443 115.826 97.7937 115.826 73.7615V28.6824C107.368 22.2234 94.8818 19.216 76.3911 19.1743C75.4869 19.4464 74.5469 19.3605 73.7359 19.1741C55.1754 19.2023 42.6511 22.2086 34.174 28.6824ZM31.2921 25.4142C40.9638 17.9002 54.8194 14.8261 74.0001 14.8261C74.1895 14.8261 74.3782 14.8508 74.5612 14.8997C74.8684 14.9818 75.0565 14.9996 75.1486 14.9998C75.4174 14.8853 75.707 14.8261 76.0001 14.8261C95.1808 14.8261 109.036 17.9002 118.708 25.4142L118.989 25.558C119.716 25.9295 120.174 26.6772 120.174 27.4937V73.7615C120.174 99.7564 103.246 122.899 77.3497 132.752L76.9894 132.936C76.4307 133.221 75.7774 133.251 75.1972 133.02C75.1867 133.02 75.1734 133.019 75.1571 133.019C75.038 133.019 74.8255 133.039 74.4978 133.116C73.9964 133.234 73.4695 133.17 73.0108 132.936L72.6505 132.752C46.7538 122.899 29.8262 99.7564 29.8262 73.7615V27.4937C29.8262 26.6772 30.2837 25.9295 31.0108 25.558L31.2921 25.4142Z" fill="white"/>
<path fill-rule="evenodd" clip-rule="evenodd" d="M66.45 58.95V46.3917C66.45 45.6231 67.0742 45 67.848 45H83.652C84.4241 45 85.05 45.6222 85.05 46.3917V58.95H97.6083C98.3769 58.95 99 59.5742 99 60.348V76.152C99 76.9241 98.3778 77.55 97.6083 77.55H85.05V90.1083C85.05 90.8769 84.4258 91.5 83.652 91.5H67.848C67.0759 91.5 66.45 90.8778 66.45 90.1083V77.55H53.8917C53.1231 77.55 52.5 76.9258 52.5 76.152V60.348C52.5 59.5759 53.1222 58.95 53.8917 58.95H66.45Z" fill="white"/>
</svg>
