<svg width="20" height="20" viewBox="0 0 20 20" fill="none" xmlns="http://www.w3.org/2000/svg">
<path fill-rule="evenodd" clip-rule="evenodd" d="M2.6765 3.53379C3.05629 3.13886 3.5714 2.91699 4.10852 2.91699H7.00271C7.33798 2.91705 7.6681 3.00366 7.96325 3.16906C8.2574 3.3339 8.50774 3.57185 8.69197 3.86168L9.29037 4.78355C9.37506 4.91726 9.4906 5.02678 9.62648 5.10203C9.76242 5.17728 9.91427 5.21589 10.0682 5.21432L10.0736 5.21426L15.8915 5.21429C16.4285 5.21429 16.9437 5.43615 17.3235 5.83108C17.7033 6.226 17.9167 6.76163 17.9167 7.32015V14.9778C17.9167 15.5363 17.7033 16.0719 17.3235 16.4668C16.9437 16.8618 16.4285 17.0837 15.8915 17.0837H4.10852C3.5714 17.0837 3.05629 16.8618 2.6765 16.4668C2.2967 16.0719 2.08333 15.5363 2.08333 14.9778V5.02285C2.08333 4.46434 2.2967 3.92871 2.6765 3.53379ZM4.10852 4.06564C3.86438 4.06564 3.63024 4.16649 3.4576 4.346C3.28497 4.52551 3.18798 4.76898 3.18798 5.02285V14.9778C3.18798 15.2317 3.28497 15.4752 3.4576 15.6547C3.63024 15.8342 3.86438 15.935 4.10852 15.935H15.8915C16.1356 15.935 16.3698 15.8342 16.5424 15.6547C16.715 15.4752 16.812 15.2317 16.812 14.9778V7.32015C16.812 7.06628 16.715 6.82281 16.5424 6.6433C16.3698 6.46379 16.1356 6.36294 15.8915 6.36294H10.0761C9.73841 6.36587 9.4054 6.28095 9.10727 6.11587C8.80931 5.95087 8.55575 5.71105 8.36964 5.41824L7.77124 4.49641C7.68742 4.36406 7.57334 4.2554 7.43919 4.18021C7.30505 4.10505 7.15508 4.06568 7.00271 4.06564C7.00268 4.06564 7.00274 4.06564 7.00271 4.06564H4.10852Z" fill="#11103A"/>
</svg>
