<svg width="20" height="20" viewBox="0 0 20 20" fill="none" xmlns="http://www.w3.org/2000/svg">
<path fill-rule="evenodd" clip-rule="evenodd" d="M6.30014 1.66699H13.7056C14.3843 1.67255 15.0331 1.94094 15.5089 2.41308C15.9842 2.88449 16.2483 3.52048 16.2434 4.18151V16.6121C16.3005 17.2261 15.9856 17.8184 15.4342 18.1258C14.8691 18.4406 14.1656 18.3947 13.6485 18.0093C13.6373 18.001 13.6265 17.9923 13.6159 17.9834L10.1066 15.0222L10.0957 15.0128C10.0429 14.9663 9.96255 14.9663 9.90975 15.0128L9.89832 15.0227L6.38352 17.9829C6.37303 17.9918 6.36227 18.0002 6.35127 18.0085C5.83439 18.3936 5.13139 18.4396 4.56647 18.1251C4.01515 17.8182 3.69986 17.2263 3.75654 16.6123V4.18148C3.75164 3.52047 4.01571 2.88448 4.49089 2.41308C4.96682 1.94094 5.61554 1.67257 6.29432 1.66702L6.30014 1.66699ZM6.30339 3.02036C5.99351 3.02356 5.6975 3.14636 5.48018 3.36196C5.26226 3.57815 5.14131 3.86993 5.14393 4.17311L5.14399 4.17884L5.14396 16.647C5.14396 16.6738 5.14233 16.7005 5.13909 16.727C5.1281 16.817 5.17339 16.9047 5.25409 16.9497C5.33076 16.9923 5.42522 16.9886 5.49778 16.9408L8.98669 14.0024C9.56556 13.4985 10.4402 13.4986 11.019 14.0027L14.5023 16.9419C14.5749 16.9896 14.6694 16.9933 14.746 16.9506C14.8267 16.9056 14.8719 16.8179 14.8608 16.7278C14.8576 16.7009 14.8559 16.674 14.8559 16.647V4.17311C14.8585 3.86993 14.7376 3.57815 14.5197 3.36196C14.3024 3.14636 14.0064 3.02356 13.6965 3.02036H6.30339Z" fill="#11103A"/>
</svg>
