<svg width="24" height="24" viewBox="0 0 24 24" fill="none" xmlns="http://www.w3.org/2000/svg">
<path fill-rule="evenodd" clip-rule="evenodd" d="M7 12C7 13.1046 6.10449 14 5 14C3.89551 14 3 13.1046 3 12C3 10.8954 3.89551 10 5 10C6.10449 10 7 10.8954 7 12ZM14 12C14 13.1046 13.1045 14 12 14C10.8955 14 10 13.1046 10 12C10 10.8954 10.8955 10 12 10C13.1045 10 14 10.8954 14 12ZM19 14C20.1045 14 21 13.1046 21 12C21 10.8954 20.1045 10 19 10C17.8955 10 17 10.8954 17 12C17 13.1046 17.8955 14 19 14Z" fill="white"/>
</svg>
