<svg width="28" height="28" viewBox="0 0 28 28" fill="none" xmlns="http://www.w3.org/2000/svg">
<path d="M23.8432 5.41564L21.4742 2.77496C21.2218 2.49405 20.8625 2.33333 20.4844 2.33333H7.51856C7.1381 2.33333 6.77559 2.49647 6.52329 2.7818L4.1535 5.45849C3.9386 5.70145 3.81982 6.01556 3.81982 6.33997V10.8531C3.81982 16.492 7.50439 21.7259 13.4359 24.5128C13.6154 24.5969 13.8085 24.6393 14.0016 24.6393C14.1947 24.6393 14.3883 24.5969 14.5673 24.5128C20.4988 21.7259 24.1834 16.492 24.1834 10.8531V6.30387C24.1834 5.97625 24.062 5.65974 23.8432 5.41564ZM19.0945 18.2648C18.8748 18.4599 18.6482 18.6009 18.4209 18.7012C15.5983 19.9463 11.3732 15.4731 11.0384 15.1117C11.0384 15.1117 9.30005 13.3568 8.17497 10.5303C7.58936 9.05911 6.98609 8.23973 8.14663 7.17638L8.57495 6.78387C9.31408 6.10669 9.98386 6.60486 10.6611 7.34399L11.5536 8.31797C12.2308 9.0571 12.6687 9.76784 11.9295 10.4451L11.4391 10.8945C11.3907 10.9388 11.3821 10.9848 11.381 11.0113C11.3798 11.0378 11.3844 11.0844 11.4223 11.1258L15.0046 15.0423C15.0425 15.0837 15.082 15.0922 15.115 15.0936C15.122 15.0873 15.1882 15.0902 15.2365 15.0458L15.727 14.5964C16.4661 13.9192 17.1359 14.4174 17.8132 15.1565L18.7057 16.1305L18.7186 16.1377C19.3958 16.8768 19.8337 17.5876 19.0945 18.2648Z" fill="white"/>
</svg>
