<svg width="24" height="24" viewBox="0 0 24 24" fill="none" xmlns="http://www.w3.org/2000/svg">
<path fill-rule="evenodd" clip-rule="evenodd" d="M19.1982 3.46368C18.8433 3.46368 18.503 3.60466 18.252 3.8556L9.24738 12.8603L8.61659 15.3834L11.1398 14.7526L20.1444 5.74798C20.3953 5.49704 20.5363 5.15669 20.5363 4.80179C20.5363 4.4469 20.3953 4.10655 20.1444 3.8556C19.8935 3.60466 19.5531 3.46368 19.1982 3.46368ZM17.2171 2.82063C17.7425 2.29519 18.4552 2 19.1982 2C19.9413 2 20.654 2.29519 21.1794 2.82063C21.7048 3.34607 22 4.05871 22 4.80179C22 5.54487 21.7048 6.25752 21.1794 6.78296L12.0314 15.931C11.9376 16.0248 11.8201 16.0913 11.6914 16.1234L7.78826 17.0992C7.53887 17.1616 7.27506 17.0885 7.09328 16.9068C6.9115 16.725 6.83843 16.4611 6.90078 16.2117L7.87656 12.3086C7.90873 12.1799 7.97527 12.0624 8.06907 11.9686L17.2171 2.82063ZM2.78596 3.75816C3.28919 3.25493 3.97172 2.97221 4.68341 2.97221H11.5139C11.9181 2.97221 12.2458 3.29986 12.2458 3.70405C12.2458 4.10823 11.9181 4.43589 11.5139 4.43589H4.68341C4.35992 4.43589 4.04968 4.56439 3.82093 4.79314C3.59219 5.02188 3.46368 5.33213 3.46368 5.65563V19.3166C3.46368 19.6402 3.59219 19.9504 3.82093 20.1791C4.04968 20.4078 4.35992 20.5363 4.68341 20.5363H18.3444C18.6679 20.5363 18.9782 20.4078 19.2069 20.1791C19.4356 19.9504 19.5641 19.6402 19.5641 19.3166V12.4861C19.5641 12.0819 19.8918 11.7542 20.296 11.7542C20.7002 11.7542 21.0278 12.0819 21.0278 12.4861V19.3166C21.0278 20.0283 20.7451 20.7109 20.2418 21.2141C19.7386 21.7173 19.0561 22 18.3444 22H4.68341C3.97172 22 3.28919 21.7173 2.78596 21.2141C2.28272 20.7109 2 20.0283 2 19.3166V5.65563C2 4.94394 2.28272 4.2614 2.78596 3.75816Z" fill="white"/>
</svg>
