<svg width="20" height="20" viewBox="0 0 20 20" fill="none" xmlns="http://www.w3.org/2000/svg">
<path fill-rule="evenodd" clip-rule="evenodd" d="M10 2.82978C9.08477 2.82978 8.20704 3.17689 7.55988 3.79474C6.91271 4.4126 6.54914 5.25058 6.54914 6.12436V8.64374H13.4508V6.12436C13.4508 5.25058 13.0873 4.4126 12.4401 3.79474C11.793 3.17689 10.9152 2.82978 10 2.82978ZM14.6688 8.64374V6.12436C14.6688 4.94219 14.1769 3.80844 13.3014 2.97253C12.4257 2.13661 11.2382 1.66699 10 1.66699C8.76176 1.66699 7.57422 2.13661 6.69866 2.97253C5.82308 3.80844 5.33119 4.94219 5.33119 6.12436V8.64374H4.31623C3.08304 8.64374 2.08333 9.59816 2.08333 10.7755V16.2019C2.08333 17.3792 3.08304 18.3337 4.31623 18.3337H15.6838C16.917 18.3337 17.9167 17.3792 17.9167 16.2019V10.7755C17.9167 9.59816 16.917 8.64374 15.6838 8.64374H14.6688ZM4.31623 9.80653C3.75569 9.80653 3.30128 10.2403 3.30128 10.7755V16.2019C3.30128 16.7371 3.75569 17.1709 4.31623 17.1709H15.6838C16.2443 17.1709 16.6987 16.7371 16.6987 16.2019V10.7755C16.6987 10.2403 16.2443 9.80653 15.6838 9.80653H4.31623Z" fill="#11103A"/>
</svg>
