<svg width="20" height="21" viewBox="0 0 20 21" fill="none" xmlns="http://www.w3.org/2000/svg">
<path fill-rule="evenodd" clip-rule="evenodd" d="M9.07956 4.59713C8.28785 3.88188 7.09175 3.85424 6.26785 4.53216C5.93082 4.80948 5.69764 5.17065 5.57737 5.56328H4.16667C3.82149 5.56328 3.54167 5.84311 3.54167 6.18828C3.54167 6.53346 3.82149 6.81328 4.16667 6.81328H5.57307C5.62368 6.98198 5.69581 7.14675 5.79011 7.30374C6.33949 8.21838 7.47582 8.59278 8.4613 8.18388L8.46244 8.1834C8.85553 8.01938 9.19144 7.74298 9.42809 7.38885L9.42878 7.38783C9.54938 7.20657 9.63918 7.01288 9.69903 6.81328H15.8333C16.1785 6.81328 16.4583 6.53346 16.4583 6.18828C16.4583 5.84311 16.1785 5.56328 15.8333 5.56328H9.69476C9.58407 5.20182 9.37729 4.86611 9.07956 4.59713ZM7.06208 5.49741C7.40771 5.21302 7.90948 5.22461 8.2416 5.52466C8.57358 5.82458 8.63599 6.32228 8.38844 6.69485C8.28868 6.84393 8.14722 6.96034 7.98171 7.02953C7.56842 7.20073 7.09204 7.04363 6.86166 6.6601C6.63118 6.27641 6.71644 5.7818 7.06208 5.49741ZM9.07956 13.193C8.28785 12.4777 7.09175 12.45 6.26785 13.128C5.93058 13.4055 5.69731 13.767 5.57711 14.16H4.16667C3.82149 14.16 3.54167 14.4398 3.54167 14.785C3.54167 15.1301 3.82149 15.41 4.16667 15.41H5.57332C5.62393 15.5784 5.69597 15.7429 5.79011 15.8995C6.33949 16.8142 7.47582 17.1886 8.4613 16.7797L8.46244 16.7792C8.85553 16.6152 9.19144 16.3388 9.42809 15.9847L8.90843 15.6375L9.42878 15.9836C9.54921 15.8026 9.63894 15.6092 9.69878 15.41H15.8333C16.1785 15.41 16.4583 15.1301 16.4583 14.785C16.4583 14.4398 16.1785 14.16 15.8333 14.16H9.69501C9.58438 13.7982 9.37752 13.4621 9.07956 13.193ZM8.2416 14.1205C8.57358 14.4204 8.63599 14.9181 8.38844 15.2907C8.28868 15.4398 8.14722 15.5562 7.98171 15.6254C7.56842 15.7965 7.09204 15.6395 6.86166 15.256C6.63118 14.8722 6.71644 14.3776 7.06208 14.0932C7.40771 13.8089 7.90948 13.8205 8.2416 14.1205ZM12.9382 9.79489C12.5925 9.5105 12.0908 9.5221 11.7586 9.82215C11.4266 10.1221 11.3642 10.6198 11.6118 10.9923C11.7115 11.1414 11.853 11.2578 12.0185 11.327C12.4318 11.4982 12.9082 11.3411 13.1386 10.9576C13.369 10.5739 13.2838 10.0793 12.9382 9.79489ZM11.0918 11.3391L10.5721 11.6863C10.8088 12.0405 11.1447 12.3169 11.5378 12.4809L11.5389 12.4814C12.5244 12.8903 13.6608 12.5159 14.2101 11.6012C14.3043 11.4445 14.3763 11.28 14.4269 11.1116H15.8333C16.1785 11.1116 16.4583 10.8318 16.4583 10.4866C16.4583 10.1414 16.1785 9.86162 15.8333 9.86162H14.4231C14.3029 9.46866 14.0697 9.10716 13.7323 8.82964C12.9084 8.15173 11.7123 8.17936 10.9207 8.89461C10.6227 9.1638 10.4158 9.49983 10.3052 9.86162H4.16667C3.82149 9.86162 3.54167 10.1414 3.54167 10.4866C3.54167 10.8318 3.82149 11.1116 4.16667 11.1116H10.3014C10.3613 11.3109 10.451 11.5043 10.5714 11.6853L11.0918 11.3391Z" fill="#A1ABBE"/>
</svg>
