<svg width="24" height="24" viewBox="0 0 24 24" fill="none" xmlns="http://www.w3.org/2000/svg">
<path fill-rule="evenodd" clip-rule="evenodd" d="M16.25 5.25H18.5C19.74 5.25 20.75 6.26 20.75 7.5C20.75 8.74 19.74 9.75 18.5 9.75H5.5C4.26 9.75 3.25 8.74 3.25 7.5C3.25 6.26 4.26 5.25 5.5 5.25H7.75L10.35 3.3C11.32 2.57 12.68 2.57 13.65 3.3L16.25 5.25ZM12.75 4.5C12.31 4.17 11.69 4.17 11.25 4.5L10.25 5.25H13.75L12.75 4.5ZM5.49999 11.25H18.5C18.72 11.25 18.93 11.35 19.07 11.52C19.21 11.69 19.28 11.91 19.24 12.13L18.16 18.62C17.86 20.43 16.3 21.75 14.46 21.75H9.53999C7.69999 21.75 6.13999 20.44 5.83999 18.62L4.75999 12.13C4.72999 11.91 4.78999 11.69 4.92999 11.52C5.06999 11.35 5.27999 11.25 5.49999 11.25ZM9.83999 19.74H9.95999V19.73C10.37 19.66 10.65 19.28 10.58 18.87L9.74999 13.87C9.67999 13.46 9.29999 13.18 8.88999 13.25C8.47999 13.32 8.19999 13.7 8.26999 14.11L9.09999 19.11C9.15999 19.48 9.47999 19.74 9.83999 19.74ZM14.17 19.75C14.53 19.75 14.85 19.49 14.91 19.12V19.13L15.74 14.13C15.8 13.73 15.53 13.34 15.12 13.27C14.71 13.2 14.33 13.48 14.26 13.89L13.43 18.89C13.37 19.29 13.64 19.68 14.05 19.75H14.17Z" fill="white"/>
</svg>
