<svg width="24" height="24" viewBox="0 0 24 24" fill="none" xmlns="http://www.w3.org/2000/svg">
<path d="M3.72162 21C3.24057 21 2.83333 20.8342 2.5 20.5026C2.16667 20.1711 2 19.766 2 19.2874V8.50213C2 8.02352 2.16667 7.61842 2.5 7.28684C2.83333 6.95526 3.24057 6.78947 3.72162 6.78947H6.63L8.3919 4.89474H13.7216V6.31579H9.01476L7.26743 8.21053H3.72162C3.6361 8.21053 3.5659 8.23781 3.51095 8.29247C3.456 8.34714 3.42857 8.41696 3.42857 8.50213V19.2874C3.42857 19.3725 3.456 19.4423 3.51095 19.497C3.5659 19.5517 3.6361 19.5789 3.72162 19.5789H18.3736C18.4591 19.5789 18.5293 19.5517 18.5843 19.497C18.6392 19.4423 18.6667 19.3725 18.6667 19.2874V11.2348H20.0952V19.2874C20.0952 19.766 19.9286 20.1711 19.5952 20.5026C19.2619 20.8342 18.8547 21 18.3736 21H3.72162ZM18.6667 8.21053V6.31579H16.7619V4.89474H18.6667V3H20.0952V4.89474H22V6.31579H20.0952V8.21053H18.6667ZM11.0476 17.7933C12.1405 17.7933 13.067 17.4154 13.827 16.6594C14.587 15.9034 14.9669 14.9818 14.9669 13.8947C14.9669 12.8076 14.587 11.8861 13.827 11.1301C13.067 10.3741 12.1405 9.99613 11.0476 9.99613C9.95476 9.99613 9.02829 10.3741 8.26829 11.1301C7.50829 11.8861 7.12838 12.8076 7.12838 13.8947C7.12838 14.9818 7.50829 15.9034 8.26829 16.6594C9.02829 17.4154 9.95476 17.7933 11.0476 17.7933ZM11.0476 16.3726C10.3443 16.3726 9.75333 16.1345 9.27476 15.6583C8.796 15.1822 8.55667 14.5944 8.55667 13.8947C8.55667 13.1951 8.796 12.6073 9.27476 12.1312C9.75333 11.655 10.3443 11.4169 11.0476 11.4169C11.751 11.4169 12.3419 11.655 12.8205 12.1312C13.2992 12.6073 13.5386 13.1951 13.5386 13.8947C13.5386 14.5944 13.2992 15.1822 12.8205 15.6583C12.3419 16.1345 11.751 16.3726 11.0476 16.3726Z" fill="white"/>
</svg>
