<svg width="25" height="24" viewBox="0 0 25 24" fill="none" xmlns="http://www.w3.org/2000/svg">
<path fill-rule="evenodd" clip-rule="evenodd" d="M21.19 16.0695L21.1979 16.0753C21.4474 16.2468 21.5579 16.5618 21.4703 16.8535C21.3818 17.1478 21.1127 17.3489 20.8076 17.3489H4.19236C3.88728 17.3489 3.61816 17.1478 3.52976 16.8535C3.44208 16.5618 3.55265 16.2468 3.80208 16.0753L3.81005 16.0695C3.82045 16.0617 3.84025 16.0464 3.86814 16.0229C3.92392 15.9762 4.01215 15.8968 4.12247 15.7794C4.34274 15.5452 4.65295 15.1578 4.96919 14.5738C5.59976 13.409 6.26926 11.4337 6.26926 8.28143C6.26926 6.61653 6.92572 5.01982 8.0942 3.84255C9.26269 2.66529 10.8475 2.00391 12.5 2.00391C14.1525 2.00391 15.7373 2.66529 16.9057 3.84255C18.0743 5.01982 18.7308 6.61653 18.7308 8.28143C18.7308 11.4337 19.4003 13.409 20.0308 14.5738C20.3471 15.1578 20.6572 15.5452 20.8775 15.7794C20.9879 15.8968 21.0761 15.9762 21.1319 16.0229C21.1597 16.0464 21.1795 16.0617 21.19 16.0695ZM11.5375 20.0355C11.3533 19.6979 10.9323 19.5747 10.5973 19.7603C10.2622 19.9458 10.1399 20.37 10.3242 20.7075C10.5384 21.1001 10.8533 21.4275 11.2361 21.6556C11.6188 21.8837 12.0553 22.0039 12.5 22.0039C12.9447 22.0039 13.3812 21.8837 13.764 21.6556C14.1467 21.4275 14.4616 21.1001 14.6759 20.7075C14.8601 20.37 14.7378 19.9458 14.4028 19.7603C14.0678 19.5747 13.6468 19.6979 13.4626 20.0355C13.3678 20.2091 13.2285 20.3539 13.0591 20.4547C12.8898 20.5557 12.6967 20.6089 12.5 20.6089C12.3033 20.6089 12.1102 20.5557 11.9409 20.4547C11.7716 20.3539 11.6322 20.2091 11.5375 20.0355Z" fill="#FF3B30"/>
</svg>
