<svg width="20" height="20" viewBox="0 0 20 20" fill="none" xmlns="http://www.w3.org/2000/svg">
<path fill-rule="evenodd" clip-rule="evenodd" d="M10 2.82978C6.03982 2.82978 2.82946 6.04014 2.82946 10.0003C2.82946 13.9605 6.03982 17.1709 10 17.1709C13.9602 17.1709 17.1706 13.9605 17.1706 10.0003C17.1706 6.04014 13.9602 2.82978 10 2.82978ZM1.66667 10.0003C1.66667 5.39795 5.39763 1.66699 10 1.66699C14.6023 1.66699 18.3333 5.39795 18.3333 10.0003C18.3333 14.6027 14.6023 18.3337 10 18.3337C5.39763 18.3337 1.66667 14.6027 1.66667 10.0003ZM10.2328 6.72746C9.82686 6.65782 9.40933 6.73411 9.05421 6.94282C8.6991 7.15153 8.42931 7.47918 8.29261 7.86774C8.18606 8.17064 7.85413 8.32981 7.55123 8.22326C7.24833 8.1167 7.08916 7.78478 7.19571 7.48188C7.42353 6.83427 7.87319 6.28818 8.46505 5.94033C9.05691 5.59249 9.75278 5.46534 10.4294 5.5814C11.106 5.69746 11.7198 6.04924 12.1618 6.57444C12.6038 7.09951 12.8458 7.76403 12.8449 8.45036C12.8448 9.534 12.0397 10.267 11.4233 10.6779C11.0973 10.8952 10.7755 11.0557 10.5374 11.1615C10.4176 11.2147 10.3169 11.2551 10.2448 11.2826C10.2088 11.2963 10.1798 11.3069 10.1588 11.3143L10.1338 11.3231L10.1261 11.3257L10.1235 11.3266L10.1226 11.3269C10.1224 11.3269 10.1218 11.3272 9.93796 10.7756L10.1226 11.3269C9.81795 11.4284 9.48795 11.2641 9.38641 10.9594C9.28496 10.6551 9.44918 10.3262 9.75323 10.2243C9.75333 10.2242 9.75401 10.2241 9.75411 10.224L9.75547 10.2236L9.76931 10.2187C9.78251 10.214 9.80341 10.2064 9.83091 10.1959C9.88602 10.1749 9.96703 10.1426 10.0652 10.0989C10.2633 10.0109 10.5228 9.88073 10.7783 9.71043C11.3245 9.34625 11.6822 8.91655 11.6822 8.45V8.44913C11.6828 8.03723 11.5376 7.6384 11.2723 7.32328C11.007 7.00816 10.6388 6.79709 10.2328 6.72746ZM9.41861 13.8763C9.41861 13.5552 9.67891 13.2949 10 13.2949H10.0078C10.3288 13.2949 10.5892 13.5552 10.5892 13.8763C10.5892 14.1974 10.3288 14.4577 10.0078 14.4577H10C9.67891 14.4577 9.41861 14.1974 9.41861 13.8763Z" fill="#11103A"/>
</svg>
