<svg width="24" height="24" viewBox="0 0 24 24" fill="none" xmlns="http://www.w3.org/2000/svg">
<path d="M21.9802 20.92L17.2902 16.23C18.4802 14.8 19.2002 12.96 19.2002 10.95C19.2002 6.4 15.5002 2.7 10.9502 2.7C6.40019 2.7 2.7002 6.4 2.7002 10.95C2.7002 15.5 6.40019 19.2 10.9502 19.2C12.9502 19.2 14.7902 18.48 16.2302 17.29L20.9202 21.98C21.0702 22.13 21.2602 22.2 21.4502 22.2C21.6402 22.2 21.8302 22.13 21.9802 21.98C22.2702 21.69 22.2702 21.21 21.9802 20.92ZM4.2002 10.95C4.2002 7.23 7.23019 4.2 10.9502 4.2C14.6702 4.2 17.7002 7.23 17.7002 10.95C17.7002 14.67 14.6702 17.7 10.9502 17.7C7.23019 17.7 4.2002 14.67 4.2002 10.95Z" fill="white"/>
</svg>
