<svg width="20" height="20" viewBox="0 0 20 20" fill="none" xmlns="http://www.w3.org/2000/svg">
<path fill-rule="evenodd" clip-rule="evenodd" d="M10 2.8295C8.92893 2.8295 7.90174 3.25817 7.14439 4.02121C6.38703 4.78425 5.96156 5.81915 5.96156 6.89826C5.96156 9.69641 5.36564 11.5378 4.73728 12.6985C4.61645 12.9217 4.49488 13.1188 4.37682 13.292H15.6231C15.5051 13.1188 15.3835 12.9217 15.2627 12.6985C14.6344 11.5378 14.0385 9.69641 14.0385 6.89826C14.0385 5.81915 13.6129 4.78425 12.8556 4.02121C12.0982 3.25817 11.071 2.8295 10 2.8295ZM17.2483 13.3932L17.2416 13.3883C17.233 13.3818 17.2164 13.3691 17.1932 13.3495C17.1467 13.3106 17.0732 13.2444 16.9813 13.1466C16.7977 12.9513 16.5392 12.6286 16.2757 12.1419C15.7502 11.1712 15.1923 9.52513 15.1923 6.89826C15.1923 5.51084 14.6452 4.18025 13.6715 3.1992C12.6978 2.21814 11.3771 1.66699 10 1.66699C8.62292 1.66699 7.30224 2.21814 6.3285 3.1992C5.35476 4.18025 4.80772 5.51084 4.80772 6.89826C4.80772 9.52513 4.2498 11.1712 3.72433 12.1419C3.46079 12.6286 3.20229 12.9513 3.01872 13.1466C2.92679 13.2444 2.85326 13.3106 2.80679 13.3495C2.78354 13.3691 2.76704 13.3818 2.75838 13.3883L2.75174 13.3932C2.54387 13.5361 2.45174 13.7986 2.5248 14.0417C2.59847 14.2869 2.82273 14.4545 3.07696 14.4545H16.923C17.1773 14.4545 17.4015 14.2869 17.4752 14.0417C17.5483 13.7986 17.4561 13.5361 17.2483 13.3932ZM8.41439 16.464C8.6936 16.3093 9.04438 16.412 9.19789 16.6933C9.27687 16.838 9.39297 16.9586 9.53408 17.0427C9.67518 17.1268 9.8361 17.1712 10 17.1712C10.1639 17.1712 10.3249 17.1268 10.4659 17.0427C10.6071 16.9586 10.7232 16.838 10.8022 16.6933C10.9557 16.412 11.3065 16.3093 11.5856 16.464C11.8649 16.6186 11.9668 16.9721 11.8132 17.2533C11.6347 17.5805 11.3722 17.8533 11.0533 18.0434C10.7343 18.2335 10.3706 18.3337 10 18.3337C9.62946 18.3337 9.2657 18.2335 8.94674 18.0434C8.62779 17.8533 8.36533 17.5805 8.1868 17.2533C8.03329 16.9721 8.13519 16.6186 8.41439 16.464Z" fill="#11103A"/>
</svg>
