<svg width="25" height="24" viewBox="0 0 25 24" fill="none" xmlns="http://www.w3.org/2000/svg">
<path fill-rule="evenodd" clip-rule="evenodd" d="M12.521 1.979C14.715 1.979 16.5 3.783 16.5 6V12C16.5 14.206 14.706 16 12.5 16C10.294 16 8.5 14.206 8.5 12V6C8.50136 4.97205 8.89783 3.98395 9.60738 3.24016C10.3169 2.49636 11.2853 2.05378 12.312 2.004C12.3805 1.98781 12.4506 1.97943 12.521 1.979ZM11.5 22V19.931C7.561 19.436 4.5 16.072 4.5 12H6.5C6.5 15.309 9.191 18 12.5 18C15.809 18 18.5 15.309 18.5 12H20.5C20.5 16.073 17.439 19.436 13.5 19.931V22H11.5Z" fill="white"/>
</svg>
