<svg width="25" height="24" viewBox="0 0 25 24" fill="none" xmlns="http://www.w3.org/2000/svg">
<path d="M12.5056 3H12.4956C7.11561 3 2.74561 6.47998 2.74561 10.75C2.74561 12.92 3.89563 15.01 5.90558 16.47C6.43561 16.85 6.74561 17.51 6.74561 18.22V20.75C6.74561 21.02 6.89563 21.27 7.12561 21.4C7.2356 21.47 7.3656 21.5 7.49561 21.5C7.62562 21.5 7.76563 21.46 7.88562 21.39L12.2256 18.79C12.5356 18.61 12.9056 18.5 13.3256 18.47C18.4156 18.13 22.2556 14.81 22.2556 10.75C22.2556 6.47998 17.8856 3 12.5056 3Z" fill="#FF3B30"/>
</svg>
