<svg width="24" height="24" viewBox="0 0 24 24" fill="none" xmlns="http://www.w3.org/2000/svg">
<g clip-path="url(#clip0_334_1486)">
<path d="M8.29091 24L6.21818 20.3429L2.29091 19.4286L2.67273 15.2L0 12L2.67273 8.8L2.29091 4.57143L6.21818 3.65714L8.29091 0L12 1.65714L15.7091 0L17.7818 3.65714L21.7091 4.57143L21.3273 8.8L24 12L21.3273 15.2L21.7091 19.4286L17.7818 20.3429L15.7091 24L12 22.3429L8.29091 24ZM10.8545 16.0571L17.0182 9.6L15.4909 7.94286L10.8545 12.8L8.50909 10.4L6.98182 12L10.8545 16.0571Z" fill="white"/>
</g>
<defs>
<clipPath id="clip0_334_1486">
<rect width="24" height="24" fill="white"/>
</clipPath>
</defs>
</svg>
