<svg width="20" height="20" viewBox="0 0 20 20" fill="none" xmlns="http://www.w3.org/2000/svg">
<path fill-rule="evenodd" clip-rule="evenodd" d="M12.1942 1.875H7.80583C6.89572 1.875 6.17446 1.87499 5.59311 1.92249C4.99863 1.97106 4.4956 2.0724 4.03629 2.30643C3.29148 2.68593 2.68593 3.29148 2.30643 4.03629C2.0724 4.4956 1.97106 4.99862 1.92249 5.59311C1.87499 6.17446 1.875 6.89571 1.875 7.80582V12.1942C1.875 13.1042 1.87499 13.8255 1.92249 14.4069C1.97106 15.0014 2.0724 15.5044 2.30643 15.9637C2.68593 16.7085 3.29148 17.3141 4.03629 17.6936C4.4956 17.9276 4.99862 18.0289 5.59311 18.0775C6.17446 18.125 6.8957 18.125 7.80582 18.125H12.1942C13.1043 18.125 13.8255 18.125 14.4069 18.0775C15.0014 18.0289 15.5044 17.9276 15.9637 17.6936C16.7085 17.3141 17.3141 16.7085 17.6936 15.9637C17.9276 15.5044 18.0289 15.0014 18.0775 14.4069C18.125 13.8255 18.125 13.1043 18.125 12.1942V7.80582C18.125 6.8957 18.125 6.17446 18.0775 5.59311C18.0289 4.99862 17.9276 4.4956 17.6936 4.03629C17.3141 3.29148 16.7085 2.68593 15.9637 2.30643C15.5044 2.0724 15.0014 1.97106 14.4069 1.92249C13.8255 1.87499 13.1042 1.875 12.1942 1.875ZM4.60377 3.42019C4.8575 3.29091 5.17771 3.21059 5.6949 3.16834C6.21939 3.12548 6.8896 3.125 7.83333 3.125H12.1667C13.1104 3.125 13.7806 3.12548 14.3051 3.16834C14.8222 3.21059 15.1425 3.29091 15.3962 3.42019C15.9058 3.67985 16.3202 4.09417 16.5798 4.60377C16.7091 4.8575 16.7894 5.17771 16.8317 5.6949C16.8745 6.21939 16.875 6.8896 16.875 7.83333V12.1667C16.875 13.1104 16.8745 13.7806 16.8317 14.3051C16.7894 14.8222 16.7091 15.1425 16.5798 15.3962C16.3202 15.9058 15.9058 16.3202 15.3962 16.5798C15.2335 16.6627 15.0435 16.7255 14.7917 16.771V16C14.7917 15.9893 14.7914 15.9787 14.7908 15.968C14.6381 12.9861 12.273 11.5083 10 11.5083C7.72697 11.5083 5.36191 12.9861 5.20915 15.968C5.20861 15.9787 5.20833 15.9893 5.20833 16V16.771C4.95653 16.7255 4.76648 16.6627 4.60377 16.5798C4.09417 16.3202 3.67985 15.9058 3.42019 15.3962C3.29091 15.1425 3.21059 14.8222 3.16834 14.3051C3.12548 13.7806 3.125 13.1104 3.125 12.1667V7.83333C3.125 6.8896 3.12548 6.21939 3.16834 5.6949C3.21059 5.17771 3.29091 4.8575 3.42019 4.60377C3.67985 4.09417 4.09417 3.67985 4.60377 3.42019ZM6.45833 16.8667C6.84311 16.8748 7.29347 16.875 7.83333 16.875H12.1667C12.7065 16.875 13.1569 16.8748 13.5417 16.8667V16.0165C13.4232 13.8532 11.7574 12.7583 10 12.7583C8.24258 12.7583 6.57678 13.8532 6.45833 16.0165V16.8667ZM10 6.12499C9.19458 6.12499 8.54167 6.77791 8.54167 7.58332C8.54167 8.38874 9.19458 9.04166 10 9.04166C10.8054 9.04166 11.4583 8.38874 11.4583 7.58332C11.4583 6.77791 10.8054 6.12499 10 6.12499ZM7.29167 7.58332C7.29167 6.08756 8.50422 4.87499 10 4.87499C11.4957 4.87499 12.7083 6.08756 12.7083 7.58332C12.7083 9.0791 11.4957 10.2917 10 10.2917C8.50422 10.2917 7.29167 9.0791 7.29167 7.58332Z" fill="#11103A"/>
</svg>
