<svg width="25" height="24" viewBox="0 0 25 24" fill="none" xmlns="http://www.w3.org/2000/svg">
<path fill-rule="evenodd" clip-rule="evenodd" d="M5.1169 16.8408C4.24044 16.991 3.50768 16.7209 2.98004 16.1823C2.47995 15.6716 2.20343 14.9637 2.08068 14.2653C1.95653 13.559 1.97732 12.797 2.13158 12.1129C2.283 11.4415 2.58139 10.7674 3.08147 10.3184C5.4878 8.1572 9.21261 7.00117 12.8234 7C16.431 6.99893 20.0933 8.15351 22.2849 10.825C22.7141 11.3482 22.9226 12.0411 22.9816 12.7193C23.0414 13.4055 22.9546 14.1398 22.7299 14.7999C22.507 15.4549 22.1297 16.089 21.5662 16.5108C20.9784 16.9505 20.2332 17.1224 19.4006 16.8981C19.2231 16.8502 19.0593 16.8121 18.8796 16.7705C18.7255 16.7347 18.5599 16.6963 18.364 16.6466C17.9849 16.5506 17.5667 16.4283 17.1803 16.2477C16.7936 16.0671 16.4018 15.8112 16.1106 15.4271C15.8097 15.0304 15.6502 14.5414 15.665 13.9653C15.6763 13.5209 15.4299 13.1312 14.8528 12.8134C14.2658 12.4901 13.4264 12.3052 12.5392 12.3019C11.653 12.2986 10.8006 12.4769 10.1909 12.7996C9.58737 13.1191 9.31041 13.5209 9.29875 13.9767C9.28302 14.5919 9.09142 15.1034 8.75385 15.5084C8.42561 15.9023 7.99588 16.152 7.57014 16.3201C6.93482 16.5708 6.1664 16.6835 5.56728 16.7713C5.4022 16.7956 5.24995 16.818 5.1169 16.8408Z" fill="white"/>
</svg>
