<svg width="25" height="24" viewBox="0 0 25 24" fill="none" xmlns="http://www.w3.org/2000/svg">
<path fill-rule="evenodd" clip-rule="evenodd" d="M9.73457 4.07655C9.20582 3.32895 8.47559 2.99209 7.69917 3.00014C6.96328 3.00777 6.24645 3.32193 5.6486 3.74102C5.04395 4.16489 4.50421 4.73488 4.11842 5.34532C3.73975 5.9445 3.46626 6.6525 3.50337 7.34366C3.68193 10.6693 5.55235 14.2232 8.18056 16.8531C10.8066 19.4807 14.3139 21.3067 17.8549 20.9573C18.5482 20.8889 19.2046 20.5361 19.7415 20.0852C20.2846 19.6292 20.756 19.0313 21.0731 18.387C21.3877 17.7478 21.5747 17.0114 21.4715 16.2941C21.3637 15.5458 20.9463 14.878 20.1766 14.4351C20.0126 14.3408 19.8656 14.2492 19.7044 14.1487C19.5662 14.0626 19.4176 13.9699 19.2388 13.8635C18.8928 13.6573 18.4993 13.4419 18.0864 13.292C17.6733 13.142 17.2017 13.043 16.71 13.1106C16.2021 13.1805 15.7299 13.4203 15.3211 13.8506C15.0058 14.1824 14.5426 14.2868 13.8911 14.0979C13.2284 13.9059 12.4824 13.4293 11.8341 12.7858C11.1864 12.1428 10.6956 11.3924 10.4866 10.7135C10.2798 10.0414 10.3707 9.54728 10.6941 9.20687C11.1306 8.74747 11.3635 8.23553 11.4126 7.69485C11.4604 7.16908 11.3293 6.67429 11.1417 6.24197C10.8617 5.59679 10.3842 4.95521 10.012 4.45499C9.90943 4.31715 9.81484 4.19004 9.73457 4.07655Z" fill="white"/>
</svg>
