<svg width="25" height="24" viewBox="0 0 25 24" fill="none" xmlns="http://www.w3.org/2000/svg">
<path d="M5.04725 19.5C4.54225 19.5 4.11475 19.325 3.76475 18.975C3.41475 18.625 3.23975 18.1974 3.23975 17.6923V6.30775C3.23975 5.80258 3.41475 5.375 3.76475 5.025C4.11475 4.675 4.54225 4.5 5.04725 4.5H16.432C16.937 4.5 17.3645 4.675 17.7145 5.025C18.0645 5.375 18.2395 5.80258 18.2395 6.30775V10.8848L20.9857 8.1385C21.1332 7.991 21.2989 7.95417 21.4827 8.028C21.6667 8.10167 21.7587 8.24233 21.7587 8.45V15.55C21.7587 15.7577 21.6667 15.8983 21.4827 15.972C21.2989 16.0458 21.1332 16.009 20.9857 15.8615L18.2395 13.1152V17.6923C18.2395 18.1974 18.0645 18.625 17.7145 18.975C17.3645 19.325 16.937 19.5 16.432 19.5H5.04725Z" fill="#FF3B30"/>
</svg>
