<svg width="42" height="42" viewBox="0 0 42 42" fill="none" xmlns="http://www.w3.org/2000/svg">
<mask id="mask0_284_5672" style="mask-type:alpha" maskUnits="userSpaceOnUse" x="0" y="0" width="42" height="42">
<rect width="42" height="42" fill="#D9D9D9"/>
</mask>
<g mask="url(#mask0_284_5672)">
<path d="M7.78856 35.875C6.90452 35.875 6.15625 35.5688 5.54375 34.9562C4.93125 34.3438 4.625 33.5955 4.625 32.7114V12.7886C4.625 11.9045 4.93125 11.1562 5.54375 10.5438C6.15625 9.93125 6.90452 9.625 7.78856 9.625H13.1326L16.3701 6.125H26.1636V8.75H17.5146L14.3038 12.25H7.78856C7.63135 12.25 7.50229 12.3005 7.40138 12.4014C7.30046 12.5023 7.25 12.6314 7.25 12.7886V32.7114C7.25 32.8686 7.30046 32.9977 7.40138 33.0986C7.50229 33.1995 7.63135 33.25 7.78856 33.25H34.7114C34.8686 33.25 34.9977 33.1995 35.0986 33.0986C35.1995 32.9977 35.25 32.8686 35.25 32.7114V17.8364H37.875V32.7114C37.875 33.5955 37.5688 34.3438 36.9562 34.9562C36.3438 35.5688 35.5955 35.875 34.7114 35.875H7.78856ZM35.25 12.25V8.75H31.75V6.125H35.25V2.625H37.875V6.125H41.375V8.75H37.875V12.25H35.25ZM21.25 29.9517C23.2581 29.9517 24.9604 29.2534 26.3569 27.8569C27.7534 26.4604 28.4517 24.7581 28.4517 22.75C28.4517 20.7419 27.7534 19.0396 26.3569 17.6431C24.9604 16.2466 23.2581 15.5483 21.25 15.5483C19.2419 15.5483 17.5396 16.2466 16.1431 17.6431C14.7466 19.0396 14.0483 20.7419 14.0483 22.75C14.0483 24.7581 14.7466 26.4604 16.1431 27.8569C17.5396 29.2534 19.2419 29.9517 21.25 29.9517ZM21.25 27.3271C19.9576 27.3271 18.8718 26.8873 17.9924 26.0076C17.1127 25.1282 16.6729 24.0424 16.6729 22.75C16.6729 21.4576 17.1127 20.3717 17.9924 19.4924C18.8718 18.6127 19.9576 18.1729 21.25 18.1729C22.5424 18.1729 23.6283 18.6127 24.5076 19.4924C25.3873 20.3717 25.8271 21.4576 25.8271 22.75C25.8271 24.0424 25.3873 25.1282 24.5076 26.0076C23.6283 26.8873 22.5424 27.3271 21.25 27.3271Z" fill="#FF3B30"/>
</g>
</svg>
