<svg width="20" height="20" viewBox="0 0 20 20" fill="none" xmlns="http://www.w3.org/2000/svg">
<path fill-rule="evenodd" clip-rule="evenodd" d="M2.8527 9.41893H6.33213C6.44732 7.07784 7.25576 4.83002 8.64452 2.95772C5.51784 3.55591 3.11221 6.18467 2.8527 9.41893ZM10 3.11841C8.50243 4.88954 7.62296 7.10211 7.49648 9.41893H12.5035C12.3771 7.10211 11.4976 4.88954 10 3.11841ZM12.5035 10.5817H7.49648C7.62296 12.8985 8.50243 15.1111 10 16.8823C11.4976 15.1111 12.3771 12.8985 12.5035 10.5817ZM8.64452 17.043C7.25576 15.1706 6.44732 12.9228 6.33213 10.5817H2.8527C3.11221 13.816 5.51784 16.4447 8.64452 17.043ZM11.3555 17.043C12.7443 15.1706 13.5527 12.9228 13.6679 10.5817H17.1473C16.8878 13.816 14.4822 16.4447 11.3555 17.043ZM17.1473 9.41893H13.6679C13.5527 7.07784 12.7443 4.83002 11.3555 2.95772C14.4822 3.55591 16.8878 6.18467 17.1473 9.41893ZM1.66667 10.0003C1.66667 5.39795 5.39763 1.66699 10 1.66699C14.6024 1.66699 18.3333 5.39795 18.3333 10.0003C18.3333 14.6027 14.6024 18.3337 10 18.3337C5.39763 18.3337 1.66667 14.6027 1.66667 10.0003Z" fill="#11103A"/>
</svg>
