<svg width="28" height="28" viewBox="0 0 28 28" fill="none" xmlns="http://www.w3.org/2000/svg">
<path d="M14.3032 3.5H14.2915C8.01484 3.5 2.9165 7.55998 2.9165 12.5417C2.9165 15.0733 4.25819 17.5117 6.60314 19.215C7.2215 19.6583 7.58317 20.4283 7.58317 21.2566V24.2083C7.58317 24.5234 7.75819 24.815 8.0265 24.9667C8.15483 25.0483 8.30649 25.0833 8.45817 25.0833C8.60985 25.0833 8.77319 25.0367 8.91318 24.955L13.9765 21.9216C14.3381 21.7116 14.7698 21.5833 15.2599 21.5483C21.1982 21.1517 25.6782 17.2783 25.6782 12.5417C25.6782 7.55998 20.5798 3.5 14.3032 3.5ZM10.2475 13.6828L9.83718 13.9816L9.11058 13.0981L8.37187 13.9816L7.96079 13.6828L8.54327 12.712L7.53988 12.2911L7.69532 11.8178L8.75867 12.0795L8.85124 10.96H9.3571L9.44959 12.0704L10.5129 11.8178L10.6685 12.2911L9.66201 12.712L10.2475 13.6828ZM15.3554 13.6828L14.9451 13.9816L14.2185 13.0981L13.4798 13.9816L13.0687 13.6828L13.6512 12.712L12.6477 12.2911L12.8033 11.8178L13.8666 12.0795L13.9591 10.96H14.465L14.5575 12.0704L15.6209 11.8178L15.7763 12.2911L14.7699 12.712L15.3554 13.6828ZM20.4626 13.6828L20.053 13.9816L19.3264 13.0981L18.5877 13.9816L18.1766 13.6828L18.7591 12.712L17.7549 12.2911L17.9111 11.8178L18.9745 12.0795L19.067 10.96H19.5721L19.6647 12.0704L20.728 11.8178L20.8843 12.2911L19.877 12.712L20.4626 13.6828Z" fill="white"/>
</svg>
