<svg width="20" height="20" viewBox="0 0 20 20" fill="none" xmlns="http://www.w3.org/2000/svg">
<path fill-rule="evenodd" clip-rule="evenodd" d="M7.5 4.16699C6.46447 4.16699 5.625 5.00646 5.625 6.04199C5.625 7.07753 6.46447 7.91699 7.5 7.91699C8.53553 7.91699 9.375 7.07753 9.375 6.04199C9.375 5.00646 8.53553 4.16699 7.5 4.16699ZM4.375 6.04199C4.375 4.3161 5.77411 2.91699 7.5 2.91699C9.22589 2.91699 10.625 4.3161 10.625 6.04199C10.625 7.76788 9.22589 9.16699 7.5 9.16699C5.77411 9.16699 4.375 7.76788 4.375 6.04199ZM3.50659 12.7048C4.4979 11.6379 5.90382 10.8337 7.5 10.8337C9.09618 10.8337 10.5021 11.6379 11.4934 12.7048C12.4787 13.7653 13.125 15.1607 13.125 16.4587C13.125 16.8038 12.8452 17.0837 12.5 17.0837C12.1548 17.0837 11.875 16.8038 11.875 16.4587C11.875 15.5474 11.402 14.4428 10.5777 13.5557C9.75932 12.6749 8.66524 12.0837 7.5 12.0837C6.33476 12.0837 5.24068 12.6749 4.42234 13.5557C3.59803 14.4428 3.125 15.5474 3.125 16.4587C3.125 16.8038 2.84517 17.0837 2.5 17.0837C2.15482 17.0837 1.875 16.8038 1.875 16.4587C1.875 15.1607 2.52126 13.7653 3.50659 12.7048ZM13.5653 11.5162C13.6592 11.184 14.0046 10.9909 14.3367 11.0847C15.5014 11.4142 16.4444 12.3002 17.0852 13.2841C17.7267 14.2688 18.125 15.4413 18.125 16.4586C18.125 16.8037 17.8452 17.0836 17.5 17.0836C17.1548 17.0836 16.875 16.8037 16.875 16.4586C16.875 15.7342 16.5777 14.7952 16.0378 13.9663C15.4976 13.1367 14.7738 12.5074 13.9966 12.2877C13.6644 12.1937 13.4713 11.8483 13.5653 11.5162ZM12.5 2.91699C12.1548 2.91699 11.875 3.19681 11.875 3.54199C11.875 3.88717 12.1548 4.16699 12.5 4.16699C13.5355 4.16699 14.375 5.00646 14.375 6.04199C14.375 7.07753 13.5355 7.91699 12.5 7.91699C12.1548 7.91699 11.875 8.19682 11.875 8.54199C11.875 8.88717 12.1548 9.16699 12.5 9.16699C14.2259 9.16699 15.625 7.76788 15.625 6.04199C15.625 4.3161 14.2259 2.91699 12.5 2.91699Z" fill="#11103A"/>
</svg>
