<svg width="100" height="100" viewBox="0 0 100 100" fill="none" xmlns="http://www.w3.org/2000/svg">
<g clip-path="url(#clip0_909_11475)">
<circle cx="50" cy="50" r="50" fill="#EAECEF"/>
<path fill-rule="evenodd" clip-rule="evenodd" d="M10.0363 80.0534C10.3616 79.2256 10.7637 78.422 11.2424 77.6424C12.7371 75.2081 14.7231 73.3503 17.2002 72.069C22.496 69.4211 27.8772 67.4351 33.3439 66.1112C38.8106 64.7872 44.3627 64.1252 50.0002 64.1252C55.6377 64.1252 61.1897 64.7872 66.6564 66.1112C72.1231 67.4351 77.5043 69.4211 82.8002 72.069C85.2773 73.3503 87.2632 75.2081 88.758 77.6424C89.2365 78.4218 89.6385 79.2252 89.9638 80.0526C80.8393 92.1671 66.3343 100 49.9997 100C33.6656 100 19.1608 92.1674 10.0363 80.0534ZM35.522 52.9784C39.5366 56.993 44.3627 59.0002 50.0002 59.0002C55.6377 59.0002 60.4637 56.993 64.4783 52.9784C68.4929 48.9638 70.5002 44.1377 70.5002 38.5002C70.5002 32.8627 68.4929 28.0367 64.4783 24.0221C60.4637 20.0075 55.6377 18.0002 50.0002 18.0002C44.3627 18.0002 39.5366 20.0075 35.522 24.0221C31.5075 28.0367 29.5002 32.8627 29.5002 38.5002C29.5002 44.1377 31.5075 48.9638 35.522 52.9784Z" fill="#A1ABBE"/>
</g>
<defs>
<clipPath id="clip0_909_11475">
<rect width="100" height="100" fill="white"/>
</clipPath>
</defs>
</svg>
