<svg width="24" height="24" viewBox="0 0 24 24" fill="none" xmlns="http://www.w3.org/2000/svg">
<path d="M21.5298 9.47L20.1198 8.06L15.8698 3.80999L14.4598 2.4C14.1698 2.11 13.6898 2.11 13.3998 2.4C13.1098 2.69 13.1098 3.17 13.3998 3.46L14.2798 4.34L10.8098 7.81C9.13977 7.69 7.51977 8.27 6.31977 9.47L5.60977 10.18C5.31977 10.47 5.31977 10.95 5.60977 11.24L8.61977 14.25L2.78977 20.08C2.49977 20.37 2.49977 20.85 2.78977 21.14C2.93977 21.29 3.12977 21.36 3.31977 21.36C3.50977 21.36 3.69977 21.29 3.84977 21.14L9.67977 15.31L12.6898 18.32C12.8298 18.46 13.0198 18.54 13.2198 18.54C13.4198 18.54 13.6098 18.46 13.7498 18.32L14.4598 17.61C15.6598 16.41 16.2498 14.79 16.1198 13.12L19.5898 9.64999L20.4698 10.53C20.6198 10.68 20.8098 10.75 20.9998 10.75C21.1898 10.75 21.3798 10.68 21.5298 10.53C21.8198 10.24 21.8198 9.76 21.5298 9.47Z" fill="white"/>
</svg>
