<svg width="20" height="20" viewBox="0 0 20 20" fill="none" xmlns="http://www.w3.org/2000/svg">
<path fill-rule="evenodd" clip-rule="evenodd" d="M2.29106 3.11958C2.69084 2.72287 3.23307 2.5 3.79845 2.5H13.1008C13.6661 2.5 14.2084 2.72287 14.6081 3.11958C15.008 3.51629 15.2326 4.05435 15.2326 4.61538V6.15385C15.2326 6.47247 14.9723 6.73077 14.6512 6.73077C14.3301 6.73077 14.0698 6.47247 14.0698 6.15385V4.61538C14.0698 4.36037 13.9677 4.1158 13.786 3.93548C13.6043 3.75515 13.3578 3.65385 13.1008 3.65385H3.79845C3.54146 3.65385 3.295 3.75515 3.11328 3.93548C2.93156 4.1158 2.82946 4.36037 2.82946 4.61538V10C2.82946 10.255 2.93156 10.4996 3.11328 10.6799C3.295 10.8602 3.54146 10.9615 3.79845 10.9615H10C10.3211 10.9615 10.5814 11.2198 10.5814 11.5385C10.5814 11.8571 10.3211 12.1154 10 12.1154H9.03101V14.0385H10C10.3211 14.0385 10.5814 14.2968 10.5814 14.6154C10.5814 14.934 10.3211 15.1923 10 15.1923H8.45562C8.45362 15.1923 8.45162 15.1923 8.44962 15.1923C8.44762 15.1923 8.44562 15.1923 8.44362 15.1923H6.12404C5.80294 15.1923 5.54264 14.934 5.54264 14.6154C5.54264 14.2968 5.80294 14.0385 6.12404 14.0385H7.86822V12.1154H3.79845C3.23307 12.1154 2.69084 11.8925 2.29106 11.4958C1.89127 11.0991 1.66667 10.561 1.66667 10V4.61538C1.66667 4.05435 1.89127 3.51629 2.29106 3.11958ZM14.6512 9.80769C14.116 9.80769 13.6822 10.2382 13.6822 10.7692V15.3846C13.6822 15.9157 14.116 16.3462 14.6512 16.3462H16.2016C16.7368 16.3462 17.1705 15.9157 17.1705 15.3846V10.7692C17.1705 10.2382 16.7368 9.80769 16.2016 9.80769H14.6512ZM12.5194 10.7692C12.5194 9.60094 13.4738 8.65385 14.6512 8.65385H16.2016C17.3789 8.65385 18.3333 9.60094 18.3333 10.7692V15.3846C18.3333 16.5529 17.3789 17.5 16.2016 17.5H14.6512C13.4738 17.5 12.5194 16.5529 12.5194 15.3846V10.7692Z" fill="#11103A"/>
</svg>
