<svg width="286" height="356" viewBox="0 0 286 356" fill="none" xmlns="http://www.w3.org/2000/svg">
<g clip-path="url(#clip0_1166_16657)">
<rect width="286" height="356" rx="20" fill="#131313"/>
<path d="M194 186.501C154 80.1008 37.3333 53.8341 -16 54.0008L-40 282.501L-5 376.501L136.5 399.001L281 330.001C268.667 326.501 234 292.901 194 186.501Z" fill="#1A1A1A"/>
<path d="M223.146 332.277C185.984 396.167 75.5308 383.661 24.9495 369.422C-34.0138 354.564 -50.8192 357.866 -51.8515 361.374L-63 401.615C-19.0252 423.077 69.5436 466 72.0211 466C74.4985 466 261.753 440.824 355.07 428.236C359.199 347.961 363.617 184.439 348.257 172.552C329.057 157.694 269.598 252.415 223.146 332.277Z" fill="#1E1E1E"/>
</g>
<defs>
<clipPath id="clip0_1166_16657">
<rect width="286" height="356" rx="20" fill="white"/>
</clipPath>
</defs>
</svg>
