<svg width="25" height="24" viewBox="0 0 25 24" fill="none" xmlns="http://www.w3.org/2000/svg">
<mask id="mask0_1073_22845" style="mask-type:alpha" maskUnits="userSpaceOnUse" x="0" y="0" width="25" height="24">
<rect x="0.5" width="24" height="24" fill="#D9D9D9"/>
</mask>
<g mask="url(#mask0_1073_22845)">
<path d="M18.2692 10.8848L21.0152 8.1386C21.1627 7.9911 21.3285 7.95426 21.5125 8.0281C21.6965 8.10176 21.7885 8.24243 21.7885 8.4501V15.5501C21.7885 15.7578 21.6965 15.8984 21.5125 15.9721C21.3285 16.0459 21.1627 16.0091 21.0152 15.8616L18.1615 13.0078V13.1808C18.059 13.4527 17.8536 13.628 17.5452 13.7068C17.2369 13.7857 16.9661 13.7084 16.7327 13.4751L9.29423 6.0366C9.14673 5.88926 9.06215 5.73193 9.04048 5.5646C9.01865 5.39726 9.04298 5.23151 9.11348 5.06735C9.18398 4.90335 9.28781 4.76776 9.42498 4.6606C9.56215 4.5536 9.73456 4.5001 9.94223 4.5001H16.4615C16.9666 4.5001 17.3942 4.6751 17.7442 5.0251C18.0942 5.3751 18.2692 5.80268 18.2692 6.30785V10.8848ZM19.946 21.6308L2.56148 4.24635C2.42315 4.10785 2.35231 3.93376 2.34898 3.7241C2.34581 3.5146 2.41665 3.33735 2.56148 3.19235C2.70648 3.04751 2.88215 2.9751 3.08848 2.9751C3.29481 2.9751 3.47048 3.04751 3.61548 3.19235L21 20.5768C21.1385 20.7153 21.2093 20.8894 21.2125 21.0991C21.2156 21.3088 21.1448 21.486 21 21.6308C20.8551 21.7757 20.6795 21.8481 20.473 21.8481C20.2666 21.8481 20.091 21.7757 19.946 21.6308ZM4.94223 4.51935L18.25 17.8271C18.218 18.2938 18.0317 18.6893 17.6912 19.0136C17.3509 19.3379 16.941 19.5001 16.4615 19.5001H5.07698C4.57181 19.5001 4.14423 19.3251 3.79423 18.9751C3.44423 18.6251 3.26923 18.1975 3.26923 17.6923V6.30785C3.26923 5.82835 3.4314 5.41843 3.75573 5.0781C4.08006 4.7376 4.47556 4.55135 4.94223 4.51935Z" fill="#131313"/>
</g>
</svg>
