<svg width="24" height="24" viewBox="0 0 24 24" fill="none" xmlns="http://www.w3.org/2000/svg">
<path d="M12.1181 4.80525C15.8304 4.80525 18.8398 7.81464 18.8398 11.5269C18.8398 15.2392 15.8304 18.2486 12.1181 18.2486C8.40588 18.2486 5.39648 15.2392 5.39648 11.5269C5.39648 7.81464 8.40588 4.80525 12.1181 4.80525Z" stroke="white" stroke-miterlimit="10"/>
<path d="M12.1052 20.6069C7.07655 20.6069 3 16.5303 3 11.5016C3 6.47297 7.07656 2.39641 12.1052 2.39641" stroke="white" stroke-miterlimit="10"/>
<path d="M13.6847 2.92902C13.6623 2.92902 13.6394 2.92708 13.6162 2.92321C13.1199 2.8365 12.6117 2.79276 12.1054 2.79276C11.8863 2.79276 11.709 2.61547 11.709 2.39638C11.709 2.17729 11.8863 2 12.1054 2C12.6574 2 13.2113 2.048 13.7525 2.14206C13.9681 2.17961 14.1125 2.38516 14.0749 2.60077C14.0412 2.79316 13.874 2.92902 13.6847 2.92902Z" fill="white" stroke="white" stroke-width="0.2" stroke-miterlimit="10"/>
<path d="M16.3544 19.9538C16.2123 19.9538 16.0745 19.8772 16.0036 19.7429C15.9011 19.5493 15.975 19.3093 16.1685 19.2071C16.9667 18.7848 17.6925 18.2433 18.3258 17.5968C18.4787 17.44 18.7296 17.4377 18.8863 17.5914C19.0427 17.7443 19.045 17.9955 18.8918 18.1519C18.2012 18.8568 17.4096 19.4475 16.5394 19.9078C16.4802 19.9391 16.4167 19.9538 16.3544 19.9538ZM20.2454 15.9811C20.1858 15.9811 20.125 15.9675 20.0677 15.9389C19.8723 15.8406 19.7933 15.6025 19.8916 15.4066C20.2973 14.5995 20.5729 13.7375 20.7111 12.8448C20.7444 12.6292 20.9492 12.4798 21.1636 12.5139C21.38 12.5476 21.5282 12.75 21.4946 12.9664C21.3436 13.9407 21.0424 14.8813 20.6 15.7628C20.5303 15.9013 20.3906 15.9811 20.2454 15.9811ZM21.1013 10.4886C20.9093 10.4886 20.7405 10.3488 20.7099 10.153C20.5714 9.26034 20.295 8.39828 19.8889 7.59158C19.7906 7.3961 19.8692 7.15803 20.0651 7.05933C20.2594 6.96101 20.499 7.03959 20.5973 7.23546C21.0405 8.1161 21.3421 9.05674 21.4934 10.0314C21.5271 10.2478 21.3788 10.4503 21.1624 10.4839C21.1419 10.487 21.1214 10.4886 21.1013 10.4886ZM18.6057 5.52217C18.5031 5.52217 18.4005 5.4823 18.3227 5.40333C17.6887 4.75727 16.9629 4.21611 16.1647 3.79495C15.9711 3.69276 15.8968 3.45276 15.999 3.25921C16.1016 3.06528 16.3408 2.99173 16.5347 3.09353C17.4053 3.55301 18.1973 4.14333 18.8887 4.84823C19.0419 5.00462 19.0396 5.25545 18.8832 5.40874C18.8062 5.48461 18.706 5.52217 18.6057 5.52217Z" fill="white" stroke="white" stroke-width="0.2" stroke-miterlimit="10"/>
<path d="M12.1054 21.0032C11.8863 21.0032 11.709 20.8259 11.709 20.6069C11.709 20.3878 11.8863 20.2105 12.1054 20.2105C12.6117 20.2105 13.1199 20.1667 13.6162 20.08C13.8337 20.0436 14.0374 20.1869 14.0749 20.4025C14.1125 20.6181 13.9681 20.8236 13.7524 20.8612C13.2113 20.9552 12.6574 21.0032 12.1054 21.0032Z" fill="white" stroke="white" stroke-width="0.2" stroke-miterlimit="10"/>
<path d="M15.3965 11.6115L10.3926 8.72249V14.5005L15.3965 11.6115Z" fill="white" stroke="white" stroke-linejoin="round"/>
</svg>
