<svg width="20" height="20" viewBox="0 0 20 20" fill="none" xmlns="http://www.w3.org/2000/svg">
<path fill-rule="evenodd" clip-rule="evenodd" d="M1.66663 5.51668C1.66663 5.17577 1.94298 4.89941 2.28388 4.89941H5.98746C6.32836 4.89941 6.60472 5.17577 6.60472 5.51668C6.60472 5.85758 6.32836 6.13394 5.98746 6.13394H2.28388C1.94298 6.13394 1.66663 5.85758 1.66663 5.51668ZM16.2371 4.92131H17.2628C17.4738 4.92131 17.6484 5.0959 17.6484 5.30686C17.6484 5.41598 17.6047 5.51055 17.5356 5.57966C17.4665 5.64876 17.3719 5.69241 17.2628 5.69241H16.6226V8.21666C17.2774 8.77676 17.652 9.58059 17.652 10.4536V10.9701C17.652 11.0719 17.612 11.1701 17.5392 11.2428C17.4665 11.3156 17.3683 11.3556 17.2665 11.3556H15.0768V15.5967C15.0768 15.7058 15.0331 15.8003 14.964 15.8694C14.895 15.9385 14.8004 15.9822 14.6913 15.9822C14.4803 15.9822 14.3057 15.8076 14.3057 15.5967V11.3556H12.1161C11.9051 11.3556 11.7305 11.181 11.7305 10.9701V10.4536C11.7305 9.58059 12.1088 8.78042 12.7599 8.21666V5.69241H12.1197C11.9088 5.69241 11.7342 5.51782 11.7342 5.30686C11.7342 5.0959 11.9088 4.92131 12.1197 4.92131H13.1455H16.2371ZM2.28388 14.7755C1.94298 14.7755 1.66663 15.0518 1.66663 15.3928C1.66663 15.7337 1.94298 16.01 2.28388 16.01H10.9255C11.2665 16.01 11.5428 15.7337 11.5428 15.3928C11.5428 15.0518 11.2665 14.7755 10.9255 14.7755H2.28388ZM2.28388 9.83759C1.94298 9.83759 1.66663 10.1139 1.66663 10.4548C1.66663 10.7958 1.94298 11.0721 2.28388 11.0721H8.45654C8.79738 11.0721 9.07379 10.7958 9.07379 10.4548C9.07379 10.1139 8.79738 9.83759 8.45654 9.83759H2.28388Z" fill="#A1ABBE"/>
</svg>
