<svg width="25" height="24" viewBox="0 0 25 24" fill="none" xmlns="http://www.w3.org/2000/svg">
<path d="M19.5 8.25H5.5C5.09 8.25 4.75 8.59 4.75 9V17C4.75 19.62 6.88 21.75 9.5 21.75H15.5C18.12 21.75 20.25 19.62 20.25 17V9C20.25 8.59 19.91 8.25 19.5 8.25ZM15.5 13.75H9.5C9.09 13.75 8.75 13.41 8.75 13C8.75 12.59 9.09 12.25 9.5 12.25H15.5C15.91 12.25 16.25 12.59 16.25 13C16.25 13.41 15.91 13.75 15.5 13.75Z" fill="white"/>
<path d="M19.5 4.25H5.5C3.98 4.25 2.75 5.48 2.75 7C2.75 7.61 2.95 8.16 3.29 8.62C3.47 7.56 4.39 6.75 5.5 6.75H19.5C20.61 6.75 21.53 7.56 21.71 8.62C22.04 8.16 22.25 7.61 22.25 7C22.25 5.48 21.02 4.25 19.5 4.25Z" fill="white"/>
</svg>
