<svg width="25" height="24" viewBox="0 0 25 24" fill="none" xmlns="http://www.w3.org/2000/svg">
<path d="M4.65838 13.9306C3.94537 12.7423 3.94537 11.2577 4.65838 10.0694C4.87596 9.70674 5.23641 9.45272 5.6511 9.36978L7.34413 9.03117C7.44499 9.011 7.53591 8.95691 7.60176 8.87788L9.67085 6.39498C10.8534 4.97592 11.4447 4.26638 11.9723 4.45742C12.5 4.64846 12.5 5.57207 12.5 7.41928L12.5 16.5807C12.5 18.4279 12.5 19.3515 11.9723 19.5426C11.4447 19.7336 10.8534 19.0241 9.67085 17.605L7.60176 15.1221C7.53591 15.0431 7.44499 14.989 7.34413 14.9688L5.6511 14.6302C5.23641 14.5473 4.87596 14.2933 4.65838 13.9306Z" fill="white"/>
<path d="M15.0355 8.46447C15.9684 9.39732 16.4948 10.6611 16.5 11.9803C16.5052 13.2996 15.9888 14.5674 15.0633 15.5076" stroke="white" stroke-width="2" stroke-linecap="round"/>
<path d="M19.1569 6.34314C20.6494 7.83572 21.4916 9.85769 21.4999 11.9685C21.5083 14.0793 20.682 16.1078 19.2012 17.6121" stroke="white" stroke-width="2" stroke-linecap="round"/>
</svg>
