<svg width="28" height="28" viewBox="0 0 28 28" fill="none" xmlns="http://www.w3.org/2000/svg">
<path fill-rule="evenodd" clip-rule="evenodd" d="M9.33333 2.625H18.6667C22.365 2.625 25.375 5.635 25.375 9.33333V18.6667C25.375 22.365 22.365 25.375 18.6667 25.375H9.33333C5.635 25.375 2.625 22.365 2.625 18.6667V9.33333C2.625 5.635 5.635 2.625 9.33333 2.625ZM18.375 10.5C18.375 8.085 16.415 6.125 14 6.125C11.585 6.125 9.625 8.085 9.625 10.5C9.625 12.915 11.585 14.875 14 14.875C16.415 14.875 18.375 12.915 18.375 10.5ZM21 21.875C21.07 21.875 21.14 21.875 21.21 21.8517C21.6883 21.735 21.9683 21.2567 21.8517 20.79L21.5833 19.6933C20.965 17.1967 18.725 15.4583 16.1583 15.4583H11.8533C9.28667 15.4583 7.04667 17.1967 6.42833 19.6933L6.16 20.79C6.04333 21.2567 6.335 21.735 6.80167 21.8517C7.28 21.9683 7.74667 21.6767 7.86333 21.21L8.13167 20.1133C8.55167 18.41 10.0917 17.2083 11.8533 17.2083H16.1583C17.92 17.2083 19.4483 18.3983 19.88 20.1133L20.1483 21.21C20.2533 21.6067 20.6033 21.875 21 21.875ZM16.625 10.5C16.625 11.9497 15.4497 13.125 14 13.125C12.5503 13.125 11.375 11.9497 11.375 10.5C11.375 9.05025 12.5503 7.875 14 7.875C15.4497 7.875 16.625 9.05025 16.625 10.5Z" fill="white"/>
</svg>
