<svg width="24" height="24" viewBox="0 0 24 24" fill="none" xmlns="http://www.w3.org/2000/svg">
<path d="M12 2C6.4823 2 2 6.4823 2 12C2 17.5177 6.4823 22 12 22C17.5177 22 22 17.5177 22 12C22 6.4823 17.5177 2 12 2ZM12 2.86957C17.0477 2.86957 21.1304 6.95225 21.1304 12C21.1304 17.0477 17.0477 21.1304 12 21.1304C6.95225 21.1304 2.86957 17.0477 2.86957 12C2.86957 6.95225 6.95225 2.86957 12 2.86957ZM12 5.91304C11.6541 5.91304 11.3223 6.05047 11.0777 6.29508C10.8331 6.53969 10.6957 6.87146 10.6957 7.21739C10.6957 7.56333 10.8331 7.89509 11.0777 8.1397C11.3223 8.38432 11.6541 8.52174 12 8.52174C12.3459 8.52174 12.6777 8.38432 12.9223 8.1397C13.1669 7.89509 13.3043 7.56333 13.3043 7.21739C13.3043 6.87146 13.1669 6.53969 12.9223 6.29508C12.6777 6.05047 12.3459 5.91304 12 5.91304ZM10.2609 10.2609V11.1304H10.6957H11.1304V16.7826H10.6957H10.2609V17.6522H10.6957H11.1304H12.8696H13.3043H13.7391V16.7826H13.3043H12.8696V10.2609H12.4348H10.6957H10.2609Z" fill="#FF3B30"/>
</svg>
