<svg width="28" height="28" viewBox="0 0 28 28" fill="none" xmlns="http://www.w3.org/2000/svg">
<path fill-rule="evenodd" clip-rule="evenodd" d="M23.2038 10.185C23.2855 10.36 23.4256 10.4883 23.6124 10.535C24.6512 10.7917 25.3866 11.7367 25.3866 12.81V15.19C25.3866 16.275 24.6629 17.2083 23.6124 17.465C23.4256 17.5117 23.2739 17.64 23.2038 17.815C23.1221 17.99 23.1455 18.1883 23.2388 18.3517C23.7991 19.2733 23.6474 20.4517 22.8887 21.21L21.2078 22.89C20.4491 23.6483 19.2702 23.7883 18.348 23.24C18.1846 23.1467 17.9862 23.135 17.8111 23.205C17.636 23.2867 17.5076 23.4267 17.4609 23.6133C17.1924 24.6517 16.2586 25.3867 15.1847 25.3867H12.8152C11.7413 25.3867 10.7958 24.6633 10.539 23.6133C10.4923 23.4267 10.3639 23.275 10.1888 23.205C10.0137 23.1233 9.8153 23.1467 9.65188 23.24C8.72974 23.8 7.55081 23.6483 6.79209 22.89L5.11123 21.21C4.3525 20.4517 4.20076 19.2733 4.76105 18.3517C4.85443 18.1883 4.8661 17.99 4.79607 17.815C4.71436 17.64 4.57428 17.5117 4.38752 17.465C3.34866 17.2083 2.61328 16.2633 2.61328 15.19V12.81C2.61328 11.725 3.33698 10.7917 4.38752 10.535C4.57428 10.4883 4.72603 10.36 4.79607 10.185C4.87777 10.01 4.85443 9.81168 4.76105 9.64835C4.20076 8.72668 4.3525 7.54835 5.11123 6.79001L6.79209 5.11001C7.55081 4.35168 8.72974 4.21168 9.65188 4.76001C9.8153 4.85335 10.0137 4.86501 10.1888 4.79501C10.3639 4.71335 10.4923 4.57335 10.539 4.38668C10.8075 3.34835 11.7413 2.61335 12.8152 2.61335H15.1847C16.2586 2.61335 17.2041 3.33668 17.4609 4.38668C17.5076 4.57335 17.636 4.72501 17.8111 4.79501C17.9862 4.87668 18.1846 4.85335 18.348 4.76001C19.2702 4.20001 20.4491 4.35168 21.2078 5.11001L22.8887 6.79001C23.6474 7.54835 23.7991 8.72668 23.2388 9.64835C23.1455 9.81168 23.1338 10.01 23.2038 10.185ZM8.46127 14C8.46127 17.0567 10.9475 19.5417 14.0058 19.5417C17.064 19.5417 19.5503 17.0567 19.5503 14C19.5503 10.9433 17.064 8.45835 14.0058 8.45835C10.9475 8.45835 8.46127 10.9433 8.46127 14ZM17.7994 14C17.7994 16.0941 16.1009 17.7917 14.0058 17.7917C11.9107 17.7917 10.2122 16.0941 10.2122 14C10.2122 11.906 11.9107 10.2083 14.0058 10.2083C16.1009 10.2083 17.7994 11.906 17.7994 14Z" fill="white"/>
</svg>
