<svg width="24" height="24" viewBox="0 0 24 24" fill="none" xmlns="http://www.w3.org/2000/svg">
<path fill-rule="evenodd" clip-rule="evenodd" d="M20 12C20 16.4183 16.4183 20 12 20C7.5817 20 4 16.4183 4 12C4 7.5817 7.5817 4 12 4C16.4183 4 20 7.5817 20 12ZM21 12C21 16.9706 16.9706 21 12 21C7.0294 21 3 16.9706 3 12C3 7.0294 7.0294 3 12 3C16.9706 3 21 7.0294 21 12ZM8 11C8.5523 11 9 11.4477 9 12C9 12.5523 8.5523 13 8 13C7.4477 13 7 12.5523 7 12C7 11.4477 7.4477 11 8 11ZM13 12C13 11.4477 12.5523 11 12 11C11.4477 11 11 11.4477 11 12C11 12.5523 11.4477 13 12 13C12.5523 13 13 12.5523 13 12ZM16 11C16.5523 11 17 11.4477 17 12C17 12.5523 16.5523 13 16 13C15.4477 13 15 12.5523 15 12C15 11.4477 15.4477 11 16 11Z" fill="white"/>
</svg>
