<svg width="14" height="15" viewBox="0 0 14 15" fill="none" xmlns="http://www.w3.org/2000/svg">
<path fill-rule="evenodd" clip-rule="evenodd" d="M11.8624 2.36828C12.0201 2.52599 12.0201 2.78169 11.8624 2.9394L10.1288 4.67304H11.0384C11.2614 4.67304 11.4423 4.85385 11.4423 5.07688C11.4423 5.29991 11.2614 5.48072 11.0384 5.48072H9.15381C9.15376 5.48072 9.15392 5.48072 9.15381 5.48072C9.05172 5.48065 8.94941 5.44212 8.87096 5.36512C8.87004 5.36423 8.86913 5.36334 8.86827 5.36244C8.86735 5.36154 8.86644 5.36063 8.86557 5.35973C8.79337 5.28619 8.75497 5.19188 8.75045 5.09625C8.75013 5.0898 8.74997 5.08334 8.74997 5.07688V3.19229C8.74997 2.96926 8.93078 2.78845 9.15381 2.78845C9.37684 2.78845 9.55766 2.96926 9.55766 3.19229V4.10192L11.2913 2.36828C11.449 2.21057 11.7047 2.21057 11.8624 2.36828ZM5.38683 2.87798C5.0784 2.44188 4.65243 2.24539 4.19951 2.25008C3.77025 2.25453 3.3521 2.43779 3.00335 2.68226C2.65064 2.92951 2.33579 3.262 2.11074 3.61809C1.88985 3.9676 1.73032 4.3806 1.75197 4.78377C1.85613 6.72371 2.9472 8.79678 4.48032 10.3309C6.01217 11.8637 8.0581 12.9288 10.1237 12.725C10.5281 12.685 10.911 12.4793 11.2242 12.2163C11.541 11.9502 11.816 11.6015 12.001 11.2256C12.1845 10.8528 12.2936 10.4232 12.2334 10.0047C12.1705 9.56828 11.927 9.17876 11.478 8.92041C11.3823 8.86538 11.2966 8.81197 11.2025 8.75333C11.1219 8.70309 11.0352 8.64903 10.9309 8.58695C10.7291 8.46671 10.4996 8.34104 10.2587 8.25359C10.0178 8.16609 9.74267 8.10837 9.45583 8.14779C9.15957 8.18855 8.8841 8.32844 8.64567 8.57946C8.46173 8.77298 8.19153 8.83388 7.81149 8.72371C7.42487 8.61172 6.98976 8.33371 6.61156 7.9583C6.23372 7.58327 5.94741 7.14551 5.82553 6.7495C5.70487 6.35745 5.7579 6.06921 5.94658 5.87063C6.20119 5.60266 6.33705 5.30402 6.36571 4.98863C6.39357 4.68194 6.3171 4.39331 6.20764 4.14112C6.0443 3.76478 5.7658 3.39053 5.54867 3.09873C5.48883 3.01833 5.43366 2.94418 5.38683 2.87798Z" fill="#A1ABBE"/>
</svg>
